# xmcd CD database file
#
# Track frame offsets:
#	150
#	17267
#	35883
#	59104
#	74019
#	90765
#	110131
#	126275
#	145487
#	168968
#	187792
#	202562
#	218841
#
# Disc length: 3000 seconds
#
# Revision: 0
# Processed by: cddbd v1.5.2PL0 Copyright (c) Steve Scherf et al.
# Submitted via: CDex 1.51
#
DISCID=b80bb60d
DTITLE=Peter Lewis Whitebird - Jorney to the Center of Life
DYEAR=1900
DGENRE=Country
TTITLE0=Journey to the Center of Life
TTITLE1=Driven by the Nails
TTITLE2=That's what you get for Lovin' Me
TTITLE3=Down
TTITLE4=Love gives until it Hurts
TTITLE5=It Doesn't Depent on You
TTITLE6=I'm Christian Country
TTITLE7=On this side of the Cross
TTITLE8=It's Only A Miracle
TTITLE9=Character Counts and Morals Matter
TTITLE10=Jesus Got-R-Did (Bubba's Song)
TTITLE11=Sweet By and By
TTITLE12=A Personal Invitation
EXTD=
EXTT0=
EXTT1=
EXTT2=
EXTT3=
EXTT4=
EXTT5=
EXTT6=
EXTT7=
EXTT8=
EXTT9=
EXTT10=
EXTT11=
EXTT12=
PLAYORDER=
